<svg xmlns="http://www.w3.org/2000/svg" xmlns:xlink="http://www.w3.org/1999/xlink" width="800" zoomAndPan="magnify" viewBox="0 0 600 149.999998" height="200" preserveAspectRatio="xMidYMid meet" version="1.0"><defs><g/><clipPath id="688ee0d0ad"><path d="M 0.441406 83 L 599 83 L 599 120.878906 L 0.441406 120.878906 Z M 0.441406 83 " clip-rule="nonzero"/></clipPath><clipPath id="1e7ca3275f"><rect x="0" width="599" y="0" height="38"/></clipPath><clipPath id="53658a6b1a"><path d="M 115 0.878906 L 492 0.878906 L 492 85 L 115 85 Z M 115 0.878906 " clip-rule="nonzero"/></clipPath><clipPath id="d02a341065"><rect x="0" width="377" y="0" height="85"/></clipPath><clipPath id="2beef97970"><rect x="0" width="599" y="0" height="121"/></clipPath></defs><g transform="matrix(1, 0, 0, 1, 1, 14)"><g clip-path="url(#2beef97970)"><g clip-path="url(#688ee0d0ad)"><g transform="matrix(1, 0, 0, 1, -0.000000000000000222, 83)"><g clip-path="url(#1e7ca3275f)"><g fill="#ffffff" fill-opacity="1"><g transform="translate(0.788306, 32.787104)"><g><path d="M 3.84375 0 L 3.84375 -18.5625 L 6.375 -18.5625 L 6.375 0 Z M 3.84375 0 "/></g></g></g><g fill="#ffffff" fill-opacity="1"><g transform="translate(12.727893, 32.787104)"><g><path d="M 21.90625 -18.5625 L 24.4375 -18.5625 L 24.4375 0 L 21.03125 0 L 6.375 -15.84375 L 6.375 0 L 3.84375 0 L 3.84375 -18.5625 L 7.203125 -18.5625 L 21.90625 -2.71875 Z M 21.90625 -18.5625 "/></g></g></g><g fill="#ffffff" fill-opacity="1"><g transform="translate(42.730574, 32.787104)"><g><path d="M 20.484375 -18.5625 L 23.328125 -18.5625 L 13.125 0 L 10.109375 0 L -0.09375 -18.5625 L 2.90625 -18.5625 L 11.6875 -2.59375 Z M 20.484375 -18.5625 "/></g></g></g><g fill="#ffffff" fill-opacity="1"><g transform="translate(67.753537, 32.787104)"><g><path d="M 22.765625 -16.296875 L 6.375 -16.296875 L 6.375 -10.171875 L 21.15625 -10.171875 L 21.15625 -7.921875 L 6.375 -7.921875 L 6.375 -2.265625 L 22.765625 -2.265625 L 22.765625 0 L 3.84375 0 L 3.84375 -18.5625 L 22.765625 -18.5625 Z M 22.765625 -16.296875 "/></g></g></g><g fill="#ffffff" fill-opacity="1"><g transform="translate(94.137419, 32.787104)"><g><path d="M 24.5 -13.125 C 24.5 -11.863281 24.25 -10.878906 23.75 -10.171875 C 23.257812 -9.472656 22.5625 -8.976562 21.65625 -8.6875 C 22.5625 -8.257812 23.222656 -7.671875 23.640625 -6.921875 C 24.066406 -6.179688 24.28125 -5.328125 24.28125 -4.359375 L 24.28125 -1.859375 C 24.28125 -1.523438 24.296875 -1.203125 24.328125 -0.890625 C 24.359375 -0.585938 24.394531 -0.289062 24.4375 0 L 21.5625 0 C 21.519531 -0.289062 21.488281 -0.582031 21.46875 -0.875 C 21.445312 -1.175781 21.4375 -1.460938 21.4375 -1.734375 L 21.4375 -4.203125 C 21.4375 -4.804688 21.34375 -5.351562 21.15625 -5.84375 C 20.96875 -6.34375 20.601562 -6.738281 20.0625 -7.03125 C 19.519531 -7.332031 18.691406 -7.484375 17.578125 -7.484375 L 6.53125 -7.484375 L 6.53125 0 L 3.84375 0 L 3.84375 -18.5625 L 18.34375 -18.5625 C 20.40625 -18.5625 21.945312 -18.140625 22.96875 -17.296875 C 23.988281 -16.453125 24.5 -15.222656 24.5 -13.609375 Z M 21.90625 -13.125 L 21.90625 -13.609375 C 21.90625 -14.328125 21.65625 -14.921875 21.15625 -15.390625 C 20.664062 -15.859375 19.726562 -16.09375 18.34375 -16.09375 L 6.53125 -16.09375 L 6.53125 -10.109375 L 18.34375 -10.109375 C 19.625 -10.109375 20.535156 -10.367188 21.078125 -10.890625 C 21.628906 -11.421875 21.90625 -12.164062 21.90625 -13.125 Z M 21.90625 -13.125 "/></g></g></g><g fill="#ffffff" fill-opacity="1"><g transform="translate(122.93383, 32.787104)"><g><path d="M 21.6875 -12.75 C 21.6875 -14.007812 20.960938 -14.925781 19.515625 -15.5 C 18.078125 -16.070312 16.128906 -16.359375 13.671875 -16.359375 C 11.984375 -16.359375 10.492188 -16.28125 9.203125 -16.125 C 7.910156 -15.976562 6.90625 -15.738281 6.1875 -15.40625 C 5.46875 -15.070312 5.109375 -14.640625 5.109375 -14.109375 L 5.109375 -13.640625 C 5.109375 -13.347656 5.179688 -13.0625 5.328125 -12.78125 C 5.484375 -12.507812 5.820312 -12.25 6.34375 -12 C 6.875 -11.75 7.679688 -11.515625 8.765625 -11.296875 C 9.847656 -11.085938 11.316406 -10.890625 13.171875 -10.703125 C 15.628906 -10.472656 17.65625 -10.1875 19.25 -9.84375 C 20.851562 -9.507812 22.050781 -9 22.84375 -8.3125 C 23.632812 -7.632812 24.03125 -6.648438 24.03125 -5.359375 L 24.03125 -4.921875 C 24.03125 -3.148438 23.164062 -1.832031 21.4375 -0.96875 C 19.707031 -0.113281 16.90625 0.3125 13.03125 0.3125 C 9.394531 0.3125 6.722656 -0.25 5.015625 -1.375 C 3.316406 -2.5 2.46875 -4.0625 2.46875 -6.0625 L 5.015625 -6.0625 C 5.015625 -4.800781 5.65625 -3.835938 6.9375 -3.171875 C 8.226562 -2.503906 10.257812 -2.171875 13.03125 -2.171875 C 14.488281 -2.171875 15.859375 -2.242188 17.140625 -2.390625 C 18.421875 -2.546875 19.457031 -2.828125 20.25 -3.234375 C 21.039062 -3.640625 21.4375 -4.203125 21.4375 -4.921875 L 21.4375 -5.359375 C 21.4375 -5.617188 21.351562 -5.882812 21.1875 -6.15625 C 21.019531 -6.425781 20.664062 -6.679688 20.125 -6.921875 C 19.582031 -7.171875 18.742188 -7.40625 17.609375 -7.625 C 16.472656 -7.84375 14.9375 -8.046875 13 -8.234375 C 10.519531 -8.492188 8.503906 -8.800781 6.953125 -9.15625 C 5.410156 -9.507812 4.28125 -10.03125 3.5625 -10.71875 C 2.851562 -11.40625 2.5 -12.378906 2.5 -13.640625 L 2.5 -14.109375 C 2.5 -15.628906 3.375 -16.796875 5.125 -17.609375 C 6.882812 -18.429688 9.734375 -18.84375 13.671875 -18.84375 C 16.992188 -18.84375 19.582031 -18.363281 21.4375 -17.40625 C 23.289062 -16.445312 24.21875 -14.894531 24.21875 -12.75 Z M 21.6875 -12.75 "/></g></g></g><g fill="#ffffff" fill-opacity="1"><g transform="translate(151.359092, 32.787104)"><g><path d="M 3.84375 0 L 3.84375 -18.5625 L 6.375 -18.5625 L 6.375 0 Z M 3.84375 0 "/></g></g></g><g fill="#ffffff" fill-opacity="1"><g transform="translate(163.298679, 32.787104)"><g><path d="M 14.71875 0.3125 C 11.726562 0.3125 9.335938 -0.0859375 7.546875 -0.890625 C 5.753906 -1.703125 4.457031 -2.78125 3.65625 -4.125 C 2.863281 -5.476562 2.46875 -6.96875 2.46875 -8.59375 L 2.46875 -9.96875 C 2.46875 -11.632812 2.863281 -13.140625 3.65625 -14.484375 C 4.457031 -15.835938 5.753906 -16.914062 7.546875 -17.71875 C 9.335938 -18.53125 11.726562 -18.9375 14.71875 -18.9375 C 17.695312 -18.9375 20.082031 -18.546875 21.875 -17.765625 C 23.664062 -16.992188 24.960938 -15.9375 25.765625 -14.59375 C 26.578125 -13.257812 26.984375 -11.753906 26.984375 -10.078125 L 26.984375 -8.71875 C 26.984375 -7.507812 26.765625 -6.363281 26.328125 -5.28125 C 25.890625 -4.195312 25.195312 -3.234375 24.25 -2.390625 C 23.300781 -1.554688 22.039062 -0.894531 20.46875 -0.40625 C 18.90625 0.0703125 16.988281 0.3125 14.71875 0.3125 Z M 14.71875 -2.171875 C 17.03125 -2.171875 18.890625 -2.425781 20.296875 -2.9375 C 21.710938 -3.457031 22.742188 -4.1875 23.390625 -5.125 C 24.046875 -6.0625 24.375 -7.160156 24.375 -8.421875 L 24.375 -9.78125 C 24.375 -11.78125 23.597656 -13.390625 22.046875 -14.609375 C 20.503906 -15.835938 18.0625 -16.453125 14.71875 -16.453125 C 11.320312 -16.453125 8.863281 -15.863281 7.34375 -14.6875 C 5.832031 -13.519531 5.078125 -11.945312 5.078125 -9.96875 L 5.078125 -8.59375 C 5.078125 -6.65625 5.832031 -5.097656 7.34375 -3.921875 C 8.863281 -2.753906 11.320312 -2.171875 14.71875 -2.171875 Z M 14.71875 -2.171875 "/></g></g></g><g fill="#ffffff" fill-opacity="1"><g transform="translate(194.476705, 32.787104)"><g><path d="M 21.90625 -18.5625 L 24.4375 -18.5625 L 24.4375 0 L 21.03125 0 L 6.375 -15.84375 L 6.375 0 L 3.84375 0 L 3.84375 -18.5625 L 7.203125 -18.5625 L 21.90625 -2.71875 Z M 21.90625 -18.5625 "/></g></g></g><g fill="#ffffff" fill-opacity="1"><g transform="translate(224.479386, 32.787104)"><g><path d="M 22.765625 -16.296875 L 6.375 -16.296875 L 6.375 -10.171875 L 21.15625 -10.171875 L 21.15625 -7.921875 L 6.375 -7.921875 L 6.375 -2.265625 L 22.765625 -2.265625 L 22.765625 0 L 3.84375 0 L 3.84375 -18.5625 L 22.765625 -18.5625 Z M 22.765625 -16.296875 "/></g></g></g><g fill="#ffffff" fill-opacity="1"><g transform="translate(250.863257, 32.787104)"><g><path d="M 21.6875 -12.75 C 21.6875 -14.007812 20.960938 -14.925781 19.515625 -15.5 C 18.078125 -16.070312 16.128906 -16.359375 13.671875 -16.359375 C 11.984375 -16.359375 10.492188 -16.28125 9.203125 -16.125 C 7.910156 -15.976562 6.90625 -15.738281 6.1875 -15.40625 C 5.46875 -15.070312 5.109375 -14.640625 5.109375 -14.109375 L 5.109375 -13.640625 C 5.109375 -13.347656 5.179688 -13.0625 5.328125 -12.78125 C 5.484375 -12.507812 5.820312 -12.25 6.34375 -12 C 6.875 -11.75 7.679688 -11.515625 8.765625 -11.296875 C 9.847656 -11.085938 11.316406 -10.890625 13.171875 -10.703125 C 15.628906 -10.472656 17.65625 -10.1875 19.25 -9.84375 C 20.851562 -9.507812 22.050781 -9 22.84375 -8.3125 C 23.632812 -7.632812 24.03125 -6.648438 24.03125 -5.359375 L 24.03125 -4.921875 C 24.03125 -3.148438 23.164062 -1.832031 21.4375 -0.96875 C 19.707031 -0.113281 16.90625 0.3125 13.03125 0.3125 C 9.394531 0.3125 6.722656 -0.25 5.015625 -1.375 C 3.316406 -2.5 2.46875 -4.0625 2.46875 -6.0625 L 5.015625 -6.0625 C 5.015625 -4.800781 5.65625 -3.835938 6.9375 -3.171875 C 8.226562 -2.503906 10.257812 -2.171875 13.03125 -2.171875 C 14.488281 -2.171875 15.859375 -2.242188 17.140625 -2.390625 C 18.421875 -2.546875 19.457031 -2.828125 20.25 -3.234375 C 21.039062 -3.640625 21.4375 -4.203125 21.4375 -4.921875 L 21.4375 -5.359375 C 21.4375 -5.617188 21.351562 -5.882812 21.1875 -6.15625 C 21.019531 -6.425781 20.664062 -6.679688 20.125 -6.921875 C 19.582031 -7.171875 18.742188 -7.40625 17.609375 -7.625 C 16.472656 -7.84375 14.9375 -8.046875 13 -8.234375 C 10.519531 -8.492188 8.503906 -8.800781 6.953125 -9.15625 C 5.410156 -9.507812 4.28125 -10.03125 3.5625 -10.71875 C 2.851562 -11.40625 2.5 -12.378906 2.5 -13.640625 L 2.5 -14.109375 C 2.5 -15.628906 3.375 -16.796875 5.125 -17.609375 C 6.882812 -18.429688 9.734375 -18.84375 13.671875 -18.84375 C 16.992188 -18.84375 19.582031 -18.363281 21.4375 -17.40625 C 23.289062 -16.445312 24.21875 -14.894531 24.21875 -12.75 Z M 21.6875 -12.75 "/></g></g></g><g fill="#ffffff" fill-opacity="1"><g transform="translate(279.288519, 32.787104)"><g/></g></g><g fill="#ffffff" fill-opacity="1"><g transform="translate(293.393232, 32.787104)"><g><path d="M 3.84375 0 L 3.84375 -18.5625 L 6.375 -18.5625 L 6.375 0 Z M 3.84375 0 "/></g></g></g><g fill="#ffffff" fill-opacity="1"><g transform="translate(305.332808, 32.787104)"><g><path d="M 21.90625 -18.5625 L 24.4375 -18.5625 L 24.4375 0 L 21.03125 0 L 6.375 -15.84375 L 6.375 0 L 3.84375 0 L 3.84375 -18.5625 L 7.203125 -18.5625 L 21.90625 -2.71875 Z M 21.90625 -18.5625 "/></g></g></g><g fill="#ffffff" fill-opacity="1"><g transform="translate(335.335489, 32.787104)"><g><path d="M 31.09375 -18.5625 L 31.09375 0 L 28.5625 0 L 28.5625 -15.40625 L 18.90625 -0.0625 L 18.9375 0 L 15.90625 0 L 15.9375 -0.0625 L 6.375 -15.375 L 6.375 0 L 3.84375 0 L 3.84375 -18.5625 L 7.359375 -18.5625 L 17.421875 -2.40625 L 27.5625 -18.5625 Z M 31.09375 -18.5625 "/></g></g></g><g fill="#ffffff" fill-opacity="1"><g transform="translate(371.98812, 32.787104)"><g><path d="M 14.71875 0.3125 C 11.726562 0.3125 9.335938 -0.0859375 7.546875 -0.890625 C 5.753906 -1.703125 4.457031 -2.78125 3.65625 -4.125 C 2.863281 -5.476562 2.46875 -6.96875 2.46875 -8.59375 L 2.46875 -9.96875 C 2.46875 -11.632812 2.863281 -13.140625 3.65625 -14.484375 C 4.457031 -15.835938 5.753906 -16.914062 7.546875 -17.71875 C 9.335938 -18.53125 11.726562 -18.9375 14.71875 -18.9375 C 17.695312 -18.9375 20.082031 -18.546875 21.875 -17.765625 C 23.664062 -16.992188 24.960938 -15.9375 25.765625 -14.59375 C 26.578125 -13.257812 26.984375 -11.753906 26.984375 -10.078125 L 26.984375 -8.71875 C 26.984375 -7.507812 26.765625 -6.363281 26.328125 -5.28125 C 25.890625 -4.195312 25.195312 -3.234375 24.25 -2.390625 C 23.300781 -1.554688 22.039062 -0.894531 20.46875 -0.40625 C 18.90625 0.0703125 16.988281 0.3125 14.71875 0.3125 Z M 14.71875 -2.171875 C 17.03125 -2.171875 18.890625 -2.425781 20.296875 -2.9375 C 21.710938 -3.457031 22.742188 -4.1875 23.390625 -5.125 C 24.046875 -6.0625 24.375 -7.160156 24.375 -8.421875 L 24.375 -9.78125 C 24.375 -11.78125 23.597656 -13.390625 22.046875 -14.609375 C 20.503906 -15.835938 18.0625 -16.453125 14.71875 -16.453125 C 11.320312 -16.453125 8.863281 -15.863281 7.34375 -14.6875 C 5.832031 -13.519531 5.078125 -11.945312 5.078125 -9.96875 L 5.078125 -8.59375 C 5.078125 -6.65625 5.832031 -5.097656 7.34375 -3.921875 C 8.863281 -2.753906 11.320312 -2.171875 14.71875 -2.171875 Z M 14.71875 -2.171875 "/></g></g></g><g fill="#ffffff" fill-opacity="1"><g transform="translate(403.166146, 32.787104)"><g><path d="M 3.84375 0 L 3.84375 -18.5625 L 16.09375 -18.5625 C 18.007812 -18.5625 19.550781 -18.179688 20.71875 -17.421875 C 21.894531 -16.671875 22.484375 -15.515625 22.484375 -13.953125 L 22.484375 -13.515625 C 22.484375 -12.648438 22.359375 -11.957031 22.109375 -11.4375 C 21.867188 -10.925781 21.5625 -10.535156 21.1875 -10.265625 C 20.820312 -10.003906 20.453125 -9.8125 20.078125 -9.6875 C 20.453125 -9.5625 20.863281 -9.375 21.3125 -9.125 C 21.769531 -8.875 22.15625 -8.5 22.46875 -8 C 22.789062 -7.507812 22.953125 -6.820312 22.953125 -5.9375 L 22.953125 -5.359375 C 22.953125 -3.597656 22.265625 -2.265625 20.890625 -1.359375 C 19.523438 -0.453125 17.613281 0 15.15625 0 Z M 6.375 -11.015625 L 16.09375 -11.015625 C 17.46875 -11.015625 18.441406 -11.191406 19.015625 -11.546875 C 19.597656 -11.910156 19.890625 -12.566406 19.890625 -13.515625 L 19.890625 -13.953125 C 19.890625 -14.609375 19.609375 -15.128906 19.046875 -15.515625 C 18.492188 -15.898438 17.507812 -16.09375 16.09375 -16.09375 L 6.375 -16.09375 Z M 6.375 -2.46875 L 15.15625 -2.46875 C 16.4375 -2.46875 17.457031 -2.609375 18.21875 -2.890625 C 18.976562 -3.171875 19.523438 -3.523438 19.859375 -3.953125 C 20.191406 -4.390625 20.359375 -4.859375 20.359375 -5.359375 L 20.359375 -5.9375 C 20.359375 -6.945312 19.941406 -7.609375 19.109375 -7.921875 C 18.285156 -8.234375 16.96875 -8.390625 15.15625 -8.390625 L 6.375 -8.390625 Z M 6.375 -2.46875 "/></g></g></g><g fill="#ffffff" fill-opacity="1"><g transform="translate(430.447011, 32.787104)"><g><path d="M 3.84375 0 L 3.84375 -18.5625 L 6.375 -18.5625 L 6.375 0 Z M 3.84375 0 "/></g></g></g><g fill="#ffffff" fill-opacity="1"><g transform="translate(442.386587, 32.787104)"><g><path d="M 6.34375 -18.5625 L 6.34375 -2.34375 L 21.8125 -2.34375 L 21.8125 0 L 3.8125 0 L 3.8125 -18.5625 Z M 6.34375 -18.5625 "/></g></g></g><g fill="#ffffff" fill-opacity="1"><g transform="translate(467.162112, 32.787104)"><g><path d="M 3.84375 0 L 3.84375 -18.5625 L 6.375 -18.5625 L 6.375 0 Z M 3.84375 0 "/></g></g></g><g fill="#ffffff" fill-opacity="1"><g transform="translate(479.101689, 32.787104)"><g><path d="M 20.546875 0 L 18.625 -3.5 L 4.984375 -3.5 L 3.0625 0 L 0.15625 0 L 10.359375 -18.53125 L 10.328125 -18.5625 L 13.265625 -18.5625 L 13.265625 -18.53125 L 23.453125 0 Z M 6.34375 -5.96875 L 17.265625 -5.96875 L 11.8125 -15.90625 Z M 6.34375 -5.96875 "/></g></g></g><g fill="#ffffff" fill-opacity="1"><g transform="translate(504.433962, 32.787104)"><g><path d="M 24.5 -13.125 C 24.5 -11.863281 24.25 -10.878906 23.75 -10.171875 C 23.257812 -9.472656 22.5625 -8.976562 21.65625 -8.6875 C 22.5625 -8.257812 23.222656 -7.671875 23.640625 -6.921875 C 24.066406 -6.179688 24.28125 -5.328125 24.28125 -4.359375 L 24.28125 -1.859375 C 24.28125 -1.523438 24.296875 -1.203125 24.328125 -0.890625 C 24.359375 -0.585938 24.394531 -0.289062 24.4375 0 L 21.5625 0 C 21.519531 -0.289062 21.488281 -0.582031 21.46875 -0.875 C 21.445312 -1.175781 21.4375 -1.460938 21.4375 -1.734375 L 21.4375 -4.203125 C 21.4375 -4.804688 21.34375 -5.351562 21.15625 -5.84375 C 20.96875 -6.34375 20.601562 -6.738281 20.0625 -7.03125 C 19.519531 -7.332031 18.691406 -7.484375 17.578125 -7.484375 L 6.53125 -7.484375 L 6.53125 0 L 3.84375 0 L 3.84375 -18.5625 L 18.34375 -18.5625 C 20.40625 -18.5625 21.945312 -18.140625 22.96875 -17.296875 C 23.988281 -16.453125 24.5 -15.222656 24.5 -13.609375 Z M 21.90625 -13.125 L 21.90625 -13.609375 C 21.90625 -14.328125 21.65625 -14.921875 21.15625 -15.390625 C 20.664062 -15.859375 19.726562 -16.09375 18.34375 -16.09375 L 6.53125 -16.09375 L 6.53125 -10.109375 L 18.34375 -10.109375 C 19.625 -10.109375 20.535156 -10.367188 21.078125 -10.890625 C 21.628906 -11.421875 21.90625 -12.164062 21.90625 -13.125 Z M 21.90625 -13.125 "/></g></g></g><g fill="#ffffff" fill-opacity="1"><g transform="translate(533.230373, 32.787104)"><g><path d="M 3.84375 0 L 3.84375 -18.5625 L 6.375 -18.5625 L 6.375 0 Z M 3.84375 0 "/></g></g></g><g fill="#ffffff" fill-opacity="1"><g transform="translate(545.169949, 32.787104)"><g><path d="M 20.546875 0 L 18.625 -3.5 L 4.984375 -3.5 L 3.0625 0 L 0.15625 0 L 10.359375 -18.53125 L 10.328125 -18.5625 L 13.265625 -18.5625 L 13.265625 -18.53125 L 23.453125 0 Z M 6.34375 -5.96875 L 17.265625 -5.96875 L 11.8125 -15.90625 Z M 6.34375 -5.96875 "/></g></g></g><g fill="#ffffff" fill-opacity="1"><g transform="translate(570.502222, 32.787104)"><g><path d="M 21.6875 -12.75 C 21.6875 -14.007812 20.960938 -14.925781 19.515625 -15.5 C 18.078125 -16.070312 16.128906 -16.359375 13.671875 -16.359375 C 11.984375 -16.359375 10.492188 -16.28125 9.203125 -16.125 C 7.910156 -15.976562 6.90625 -15.738281 6.1875 -15.40625 C 5.46875 -15.070312 5.109375 -14.640625 5.109375 -14.109375 L 5.109375 -13.640625 C 5.109375 -13.347656 5.179688 -13.0625 5.328125 -12.78125 C 5.484375 -12.507812 5.820312 -12.25 6.34375 -12 C 6.875 -11.75 7.679688 -11.515625 8.765625 -11.296875 C 9.847656 -11.085938 11.316406 -10.890625 13.171875 -10.703125 C 15.628906 -10.472656 17.65625 -10.1875 19.25 -9.84375 C 20.851562 -9.507812 22.050781 -9 22.84375 -8.3125 C 23.632812 -7.632812 24.03125 -6.648438 24.03125 -5.359375 L 24.03125 -4.921875 C 24.03125 -3.148438 23.164062 -1.832031 21.4375 -0.96875 C 19.707031 -0.113281 16.90625 0.3125 13.03125 0.3125 C 9.394531 0.3125 6.722656 -0.25 5.015625 -1.375 C 3.316406 -2.5 2.46875 -4.0625 2.46875 -6.0625 L 5.015625 -6.0625 C 5.015625 -4.800781 5.65625 -3.835938 6.9375 -3.171875 C 8.226562 -2.503906 10.257812 -2.171875 13.03125 -2.171875 C 14.488281 -2.171875 15.859375 -2.242188 17.140625 -2.390625 C 18.421875 -2.546875 19.457031 -2.828125 20.25 -3.234375 C 21.039062 -3.640625 21.4375 -4.203125 21.4375 -4.921875 L 21.4375 -5.359375 C 21.4375 -5.617188 21.351562 -5.882812 21.1875 -6.15625 C 21.019531 -6.425781 20.664062 -6.679688 20.125 -6.921875 C 19.582031 -7.171875 18.742188 -7.40625 17.609375 -7.625 C 16.472656 -7.84375 14.9375 -8.046875 13 -8.234375 C 10.519531 -8.492188 8.503906 -8.800781 6.953125 -9.15625 C 5.410156 -9.507812 4.28125 -10.03125 3.5625 -10.71875 C 2.851562 -11.40625 2.5 -12.378906 2.5 -13.640625 L 2.5 -14.109375 C 2.5 -15.628906 3.375 -16.796875 5.125 -17.609375 C 6.882812 -18.429688 9.734375 -18.84375 13.671875 -18.84375 C 16.992188 -18.84375 19.582031 -18.363281 21.4375 -17.40625 C 23.289062 -16.445312 24.21875 -14.894531 24.21875 -12.75 Z M 21.6875 -12.75 "/></g></g></g></g></g></g><g clip-path="url(#53658a6b1a)"><g transform="matrix(1, 0, 0, 1, 115, -0.000000000000008882)"><g clip-path="url(#d02a341065)"><g fill="#ffffff" fill-opacity="1"><g transform="translate(0.589355, 72.858139)"><g><path d="M 35.28125 -22.109375 L 60.1875 -22.109375 L 60.1875 0 L 55.578125 0 L 54.671875 -7.390625 L 54.671875 -7.59375 C 52.953125 -4.90625 50.300781 -2.847656 46.71875 -1.421875 C 43.144531 -0.00390625 38.359375 0.703125 32.359375 0.703125 C 27.285156 0.703125 23.03125 0.179688 19.59375 -0.859375 C 16.15625 -1.910156 13.410156 -3.378906 11.359375 -5.265625 C 9.316406 -7.148438 7.84375 -9.332031 6.9375 -11.8125 C 6.03125 -14.300781 5.578125 -17.007812 5.578125 -19.9375 L 5.578125 -22.03125 C 5.578125 -25.9375 6.472656 -29.445312 8.265625 -32.5625 C 10.054688 -35.675781 12.972656 -38.140625 17.015625 -39.953125 C 21.054688 -41.765625 26.445312 -42.671875 33.1875 -42.671875 C 37.9375 -42.671875 41.945312 -42.21875 45.21875 -41.3125 C 48.5 -40.40625 51.148438 -39.207031 53.171875 -37.71875 C 55.191406 -36.238281 56.691406 -34.59375 57.671875 -32.78125 C 58.648438 -30.96875 59.207031 -29.148438 59.34375 -27.328125 L 53.140625 -27.328125 C 52.898438 -28.867188 52.109375 -30.394531 50.765625 -31.90625 C 49.421875 -33.414062 47.34375 -34.65625 44.53125 -35.625 C 41.71875 -36.601562 37.9375 -37.09375 33.1875 -37.09375 C 25.519531 -37.09375 19.976562 -35.753906 16.5625 -33.078125 C 13.144531 -30.410156 11.4375 -26.726562 11.4375 -22.03125 L 11.4375 -19.9375 C 11.4375 -16.820312 12.109375 -14.132812 13.453125 -11.875 C 14.804688 -9.625 17.015625 -7.894531 20.078125 -6.6875 C 23.148438 -5.476562 27.242188 -4.875 32.359375 -4.875 C 38.816406 -4.875 43.820312 -5.835938 47.375 -7.765625 C 50.9375 -9.703125 53.160156 -12.785156 54.046875 -17.015625 L 35.28125 -17.015625 Z M 35.28125 -22.109375 "/></g></g></g><g fill="#ffffff" fill-opacity="1"><g transform="translate(75.556565, 72.858139)"><g><path d="M 46.296875 0 L 41.984375 -7.875 L 11.234375 -7.875 L 6.90625 0 L 0.34375 0 L 23.359375 -41.765625 L 23.296875 -41.84375 L 29.921875 -41.84375 L 29.921875 -41.765625 L 52.859375 0 Z M 14.296875 -13.453125 L 38.90625 -13.453125 L 26.640625 -35.84375 Z M 14.296875 -13.453125 "/></g></g></g><g fill="#ffffff" fill-opacity="1"><g transform="translate(137.552707, 72.858139)"><g><path d="M 55.234375 -29.5625 C 55.234375 -26.726562 54.671875 -24.519531 53.546875 -22.9375 C 52.429688 -21.363281 50.851562 -20.25 48.8125 -19.59375 C 50.851562 -18.613281 52.347656 -17.285156 53.296875 -15.609375 C 54.253906 -13.941406 54.734375 -12.015625 54.734375 -9.828125 L 54.734375 -4.1875 C 54.734375 -3.4375 54.769531 -2.710938 54.84375 -2.015625 C 54.914062 -1.316406 55 -0.644531 55.09375 0 L 48.609375 0 C 48.515625 -0.644531 48.441406 -1.304688 48.390625 -1.984375 C 48.347656 -2.660156 48.328125 -3.300781 48.328125 -3.90625 L 48.328125 -9.484375 C 48.328125 -10.828125 48.117188 -12.054688 47.703125 -13.171875 C 47.285156 -14.296875 46.457031 -15.191406 45.21875 -15.859375 C 43.988281 -16.535156 42.117188 -16.875 39.609375 -16.875 L 14.71875 -16.875 L 14.71875 0 L 8.640625 0 L 8.640625 -41.84375 L 41.359375 -41.84375 C 46.003906 -41.84375 49.476562 -40.890625 51.78125 -38.984375 C 54.082031 -37.078125 55.234375 -34.3125 55.234375 -30.6875 Z M 49.375 -29.5625 L 49.375 -30.6875 C 49.375 -32.3125 48.816406 -33.644531 47.703125 -34.6875 C 46.585938 -35.738281 44.472656 -36.265625 41.359375 -36.265625 L 14.71875 -36.265625 L 14.71875 -22.796875 L 41.359375 -22.796875 C 44.234375 -22.796875 46.285156 -23.390625 47.515625 -24.578125 C 48.753906 -25.765625 49.375 -27.425781 49.375 -29.5625 Z M 49.375 -29.5625 "/></g></g></g><g fill="#ffffff" fill-opacity="1"><g transform="translate(207.359379, 72.858139)"><g><path d="M 33.1875 0.703125 C 26.445312 0.703125 21.054688 -0.203125 17.015625 -2.015625 C 12.972656 -3.828125 10.054688 -6.300781 8.265625 -9.4375 C 6.472656 -12.582031 5.578125 -16.082031 5.578125 -19.9375 L 5.578125 -22.03125 C 5.578125 -25.9375 6.472656 -29.445312 8.265625 -32.5625 C 10.054688 -35.675781 12.972656 -38.140625 17.015625 -39.953125 C 21.054688 -41.765625 26.445312 -42.671875 33.1875 -42.671875 C 38.863281 -42.671875 43.703125 -41.972656 47.703125 -40.578125 C 51.703125 -39.191406 54.789062 -37.300781 56.96875 -34.90625 C 59.15625 -32.507812 60.34375 -29.800781 60.53125 -26.78125 L 54.328125 -26.78125 C 53.953125 -29.84375 51.878906 -32.328125 48.109375 -34.234375 C 44.347656 -36.140625 39.375 -37.09375 33.1875 -37.09375 C 25.519531 -37.09375 19.976562 -35.753906 16.5625 -33.078125 C 13.144531 -30.410156 11.4375 -26.726562 11.4375 -22.03125 L 11.4375 -19.9375 C 11.4375 -15.289062 13.144531 -11.617188 16.5625 -8.921875 C 19.976562 -6.222656 25.519531 -4.875 33.1875 -4.875 C 39.84375 -4.875 44.84375 -5.847656 48.1875 -7.796875 C 51.53125 -9.753906 53.550781 -12.382812 54.25 -15.6875 L 60.453125 -15.6875 C 60.035156 -12.570312 58.816406 -9.769531 56.796875 -7.28125 C 54.773438 -4.800781 51.832031 -2.847656 47.96875 -1.421875 C 44.113281 -0.00390625 39.1875 0.703125 33.1875 0.703125 Z M 33.1875 0.703125 "/></g></g></g><g fill="#ffffff" fill-opacity="1"><g transform="translate(282.396309, 72.858139)"><g><path d="M 8.640625 0 L 8.640625 -41.84375 L 14.359375 -41.84375 L 14.359375 0 Z M 8.640625 0 "/></g></g></g><g fill="#ffffff" fill-opacity="1"><g transform="translate(314.19637, 72.858139)"><g><path d="M 46.296875 0 L 41.984375 -7.875 L 11.234375 -7.875 L 6.90625 0 L 0.34375 0 L 23.359375 -41.765625 L 23.296875 -41.84375 L 29.921875 -41.84375 L 29.921875 -41.765625 L 52.859375 0 Z M 14.296875 -13.453125 L 38.90625 -13.453125 L 26.640625 -35.84375 Z M 14.296875 -13.453125 "/></g></g></g></g></g></g></g></g></svg>