<svg xmlns="http://www.w3.org/2000/svg" xmlns:xlink="http://www.w3.org/1999/xlink" width="800" zoomAndPan="magnify" viewBox="0 0 600 149.999998" height="200" preserveAspectRatio="xMidYMid meet" version="1.0"><defs><g/><clipPath id="50856026ed"><rect x="0" width="585" y="0" height="130"/></clipPath></defs><g transform="matrix(1, 0, 0, 1, 14, -0.000000000000007527)"><g clip-path="url(#50856026ed)"><g fill="#ffffff" fill-opacity="1"><g transform="translate(1.082494, 112.098107)"><g><path d="M 54.828125 -34.34375 L 93.5 -34.34375 L 93.5 0 L 86.34375 0 L 84.9375 -11.484375 L 84.9375 -11.8125 C 82.269531 -7.625 78.15625 -4.425781 72.59375 -2.21875 C 67.03125 -0.0195312 59.585938 1.078125 50.265625 1.078125 C 42.398438 1.078125 35.789062 0.265625 30.4375 -1.359375 C 25.09375 -2.984375 20.832031 -5.253906 17.65625 -8.171875 C 14.476562 -11.097656 12.1875 -14.492188 10.78125 -18.359375 C 9.375 -22.222656 8.671875 -26.429688 8.671875 -30.984375 L 8.671875 -34.234375 C 8.671875 -40.304688 10.0625 -45.757812 12.84375 -50.59375 C 15.625 -55.4375 20.15625 -59.265625 26.4375 -62.078125 C 32.71875 -64.898438 41.097656 -66.3125 51.578125 -66.3125 C 58.941406 -66.3125 65.171875 -65.601562 70.265625 -64.1875 C 75.359375 -62.78125 79.472656 -60.921875 82.609375 -58.609375 C 85.753906 -56.296875 88.082031 -53.734375 89.59375 -50.921875 C 91.113281 -48.109375 91.984375 -45.289062 92.203125 -42.46875 L 82.5625 -42.46875 C 82.195312 -44.851562 80.96875 -47.21875 78.875 -49.5625 C 76.78125 -51.914062 73.546875 -53.847656 69.171875 -55.359375 C 64.804688 -56.878906 58.941406 -57.640625 51.578125 -57.640625 C 39.648438 -57.640625 31.03125 -55.5625 25.71875 -51.40625 C 20.414062 -47.25 17.765625 -41.523438 17.765625 -34.234375 L 17.765625 -30.984375 C 17.765625 -26.148438 18.8125 -21.976562 20.90625 -18.46875 C 23 -14.96875 26.429688 -12.273438 31.203125 -10.390625 C 35.972656 -8.515625 42.328125 -7.578125 50.265625 -7.578125 C 60.304688 -7.578125 68.085938 -9.078125 73.609375 -12.078125 C 79.140625 -15.078125 82.59375 -19.863281 83.96875 -26.4375 L 54.828125 -26.4375 Z M 54.828125 -34.34375 "/></g></g></g><g fill="#ffffff" fill-opacity="1"><g transform="translate(117.540442, 112.098107)"><g><path d="M 71.9375 0 L 65.21875 -12.25 L 17.4375 -12.25 L 10.71875 0 L 0.546875 0 L 36.296875 -64.890625 L 36.1875 -65 L 46.484375 -65 L 46.484375 -64.890625 L 82.125 0 Z M 22.203125 -20.90625 L 60.453125 -20.90625 L 41.390625 -55.6875 Z M 22.203125 -20.90625 "/></g></g></g><g fill="#ffffff" fill-opacity="1"><g transform="translate(213.848623, 112.098107)"><g><path d="M 85.8125 -45.9375 C 85.8125 -41.53125 84.941406 -38.097656 83.203125 -35.640625 C 81.472656 -33.191406 79.019531 -31.457031 75.84375 -30.4375 C 79.019531 -28.925781 81.347656 -26.867188 82.828125 -24.265625 C 84.304688 -21.671875 85.046875 -18.675781 85.046875 -15.28125 L 85.046875 -6.5 C 85.046875 -5.34375 85.097656 -4.222656 85.203125 -3.140625 C 85.316406 -2.054688 85.445312 -1.007812 85.59375 0 L 75.515625 0 C 75.367188 -1.007812 75.257812 -2.035156 75.1875 -3.078125 C 75.113281 -4.128906 75.078125 -5.125 75.078125 -6.0625 L 75.078125 -14.734375 C 75.078125 -16.828125 74.75 -18.738281 74.09375 -20.46875 C 73.445312 -22.207031 72.164062 -23.597656 70.25 -24.640625 C 68.34375 -25.691406 65.441406 -26.21875 61.546875 -26.21875 L 22.859375 -26.21875 L 22.859375 0 L 13.4375 0 L 13.4375 -65 L 64.25 -65 C 71.46875 -65 76.863281 -63.519531 80.4375 -60.5625 C 84.019531 -57.601562 85.8125 -53.304688 85.8125 -47.671875 Z M 76.703125 -45.9375 L 76.703125 -47.671875 C 76.703125 -50.203125 75.832031 -52.28125 74.09375 -53.90625 C 72.363281 -55.53125 69.082031 -56.34375 64.25 -56.34375 L 22.859375 -56.34375 L 22.859375 -35.421875 L 64.25 -35.421875 C 68.726562 -35.421875 71.921875 -36.34375 73.828125 -38.1875 C 75.742188 -40.03125 76.703125 -42.613281 76.703125 -45.9375 Z M 76.703125 -45.9375 "/></g></g></g><g fill="#ffffff" fill-opacity="1"><g transform="translate(322.290004, 112.098107)"><g><path d="M 51.578125 1.078125 C 41.097656 1.078125 32.71875 -0.328125 26.4375 -3.140625 C 20.15625 -5.960938 15.625 -9.8125 12.84375 -14.6875 C 10.0625 -19.5625 8.671875 -24.992188 8.671875 -30.984375 L 8.671875 -34.234375 C 8.671875 -40.304688 10.0625 -45.757812 12.84375 -50.59375 C 15.625 -55.4375 20.15625 -59.265625 26.4375 -62.078125 C 32.71875 -64.898438 41.097656 -66.3125 51.578125 -66.3125 C 60.390625 -66.3125 67.898438 -65.226562 74.109375 -63.0625 C 80.316406 -60.894531 85.117188 -57.945312 88.515625 -54.21875 C 91.910156 -50.5 93.753906 -46.296875 94.046875 -41.609375 L 84.40625 -41.609375 C 83.820312 -46.367188 80.601562 -50.226562 74.75 -53.1875 C 68.90625 -56.15625 61.179688 -57.640625 51.578125 -57.640625 C 39.648438 -57.640625 31.03125 -55.5625 25.71875 -51.40625 C 20.414062 -47.25 17.765625 -41.523438 17.765625 -34.234375 L 17.765625 -30.984375 C 17.765625 -23.765625 20.414062 -18.054688 25.71875 -13.859375 C 31.03125 -9.671875 39.648438 -7.578125 51.578125 -7.578125 C 61.898438 -7.578125 69.660156 -9.09375 74.859375 -12.125 C 80.066406 -15.164062 83.210938 -19.25 84.296875 -24.375 L 93.9375 -24.375 C 93.28125 -19.539062 91.378906 -15.191406 88.234375 -11.328125 C 85.097656 -7.460938 80.53125 -4.425781 74.53125 -2.21875 C 68.539062 -0.0195312 60.890625 1.078125 51.578125 1.078125 Z M 51.578125 1.078125 "/></g></g></g><g fill="#ffffff" fill-opacity="1"><g transform="translate(438.856266, 112.098107)"><g><path d="M 13.4375 0 L 13.4375 -65 L 22.3125 -65 L 22.3125 0 Z M 13.4375 0 "/></g></g></g><g fill="#ffffff" fill-opacity="1"><g transform="translate(488.256644, 112.098107)"><g><path d="M 71.9375 0 L 65.21875 -12.25 L 17.4375 -12.25 L 10.71875 0 L 0.546875 0 L 36.296875 -64.890625 L 36.1875 -65 L 46.484375 -65 L 46.484375 -64.890625 L 82.125 0 Z M 22.203125 -20.90625 L 60.453125 -20.90625 L 41.390625 -55.6875 Z M 22.203125 -20.90625 "/></g></g></g></g></g></svg>