<svg xmlns="http://www.w3.org/2000/svg" xmlns:xlink="http://www.w3.org/1999/xlink" width="512" zoomAndPan="magnify" viewBox="0 0 384 383.999986" height="512" preserveAspectRatio="xMidYMid meet" version="1.0"><defs><clipPath id="479f2f9408"><path d="M 303.03125 278.867188 L 384 278.867188 L 384 361.417969 L 303.03125 361.417969 Z M 303.03125 278.867188 " clip-rule="nonzero"/></clipPath><clipPath id="ee9399db77"><path d="M 310.53125 278.867188 L 376.5 278.867188 C 378.488281 278.867188 380.398438 279.65625 381.804688 281.0625 C 383.210938 282.46875 384 284.378906 384 286.367188 L 384 353.734375 C 384 355.722656 383.210938 357.628906 381.804688 359.039062 C 380.398438 360.445312 378.488281 361.234375 376.5 361.234375 L 310.53125 361.234375 C 308.542969 361.234375 306.636719 360.445312 305.230469 359.039062 C 303.824219 357.628906 303.03125 355.722656 303.03125 353.734375 L 303.03125 286.367188 C 303.03125 284.378906 303.824219 282.46875 305.230469 281.0625 C 306.636719 279.65625 308.542969 278.867188 310.53125 278.867188 Z M 310.53125 278.867188 " clip-rule="nonzero"/></clipPath><clipPath id="3f20776275"><path d="M 0.03125 0.867188 L 81 0.867188 L 81 83.238281 L 0.03125 83.238281 Z M 0.03125 0.867188 " clip-rule="nonzero"/></clipPath><clipPath id="584de6e4a9"><path d="M 7.53125 0.867188 L 73.5 0.867188 C 75.488281 0.867188 77.398438 1.65625 78.804688 3.0625 C 80.210938 4.46875 81 6.378906 81 8.367188 L 81 75.734375 C 81 77.722656 80.210938 79.628906 78.804688 81.039062 C 77.398438 82.445312 75.488281 83.234375 73.5 83.234375 L 7.53125 83.234375 C 5.542969 83.234375 3.636719 82.445312 2.230469 81.039062 C 0.824219 79.628906 0.03125 77.722656 0.03125 75.734375 L 0.03125 8.367188 C 0.03125 6.378906 0.824219 4.46875 2.230469 3.0625 C 3.636719 1.65625 5.542969 0.867188 7.53125 0.867188 Z M 7.53125 0.867188 " clip-rule="nonzero"/></clipPath><clipPath id="6798ee7ae4"><rect x="0" width="81" y="0" height="84"/></clipPath><clipPath id="acbb90c143"><path d="M 303.03125 186.816406 L 384 186.816406 L 384 268.417969 L 303.03125 268.417969 Z M 303.03125 186.816406 " clip-rule="nonzero"/></clipPath><clipPath id="69d1478930"><path d="M 310.53125 186.816406 L 376.5 186.816406 C 378.488281 186.816406 380.398438 187.605469 381.804688 189.015625 C 383.210938 190.421875 384 192.328125 384 194.316406 L 384 260.914062 C 384 262.902344 383.210938 264.8125 381.804688 266.21875 C 380.398438 267.625 378.488281 268.414062 376.5 268.414062 L 310.53125 268.414062 C 308.542969 268.414062 306.636719 267.625 305.230469 266.21875 C 303.824219 264.8125 303.03125 262.902344 303.03125 260.914062 L 303.03125 194.316406 C 303.03125 192.328125 303.824219 190.421875 305.230469 189.015625 C 306.636719 187.605469 308.542969 186.816406 310.53125 186.816406 Z M 310.53125 186.816406 " clip-rule="nonzero"/></clipPath><clipPath id="881a4d8f93"><path d="M 0.03125 0.816406 L 81 0.816406 L 81 82.417969 L 0.03125 82.417969 Z M 0.03125 0.816406 " clip-rule="nonzero"/></clipPath><clipPath id="a9f491988b"><path d="M 7.53125 0.816406 L 73.5 0.816406 C 75.488281 0.816406 77.398438 1.605469 78.804688 3.015625 C 80.210938 4.421875 81 6.328125 81 8.316406 L 81 74.914062 C 81 76.902344 80.210938 78.8125 78.804688 80.21875 C 77.398438 81.625 75.488281 82.414062 73.5 82.414062 L 7.53125 82.414062 C 5.542969 82.414062 3.636719 81.625 2.230469 80.21875 C 0.824219 78.8125 0.03125 76.902344 0.03125 74.914062 L 0.03125 8.316406 C 0.03125 6.328125 0.824219 4.421875 2.230469 3.015625 C 3.636719 1.605469 5.542969 0.816406 7.53125 0.816406 Z M 7.53125 0.816406 " clip-rule="nonzero"/></clipPath><clipPath id="9250500144"><rect x="0" width="81" y="0" height="83"/></clipPath><clipPath id="eee16a4ccf"><path d="M 206.089844 186.816406 L 287.058594 186.816406 L 287.058594 268.417969 L 206.089844 268.417969 Z M 206.089844 186.816406 " clip-rule="nonzero"/></clipPath><clipPath id="ea63362927"><path d="M 213.589844 186.816406 L 279.558594 186.816406 C 281.546875 186.816406 283.453125 187.605469 284.859375 189.015625 C 286.269531 190.421875 287.058594 192.328125 287.058594 194.316406 L 287.058594 260.914062 C 287.058594 262.902344 286.269531 264.8125 284.859375 266.21875 C 283.453125 267.625 281.546875 268.414062 279.558594 268.414062 L 213.589844 268.414062 C 211.601562 268.414062 209.695312 267.625 208.289062 266.21875 C 206.878906 264.8125 206.089844 262.902344 206.089844 260.914062 L 206.089844 194.316406 C 206.089844 192.328125 206.878906 190.421875 208.289062 189.015625 C 209.695312 187.605469 211.601562 186.816406 213.589844 186.816406 Z M 213.589844 186.816406 " clip-rule="nonzero"/></clipPath><clipPath id="8c4374fbb7"><path d="M 0.0898438 0.816406 L 81.058594 0.816406 L 81.058594 82.417969 L 0.0898438 82.417969 Z M 0.0898438 0.816406 " clip-rule="nonzero"/></clipPath><clipPath id="a143bf9d47"><path d="M 7.589844 0.816406 L 73.558594 0.816406 C 75.546875 0.816406 77.453125 1.605469 78.859375 3.015625 C 80.269531 4.421875 81.058594 6.328125 81.058594 8.316406 L 81.058594 74.914062 C 81.058594 76.902344 80.269531 78.8125 78.859375 80.21875 C 77.453125 81.625 75.546875 82.414062 73.558594 82.414062 L 7.589844 82.414062 C 5.601562 82.414062 3.695312 81.625 2.289062 80.21875 C 0.878906 78.8125 0.0898438 76.902344 0.0898438 74.914062 L 0.0898438 8.316406 C 0.0898438 6.328125 0.878906 4.421875 2.289062 3.015625 C 3.695312 1.605469 5.601562 0.816406 7.589844 0.816406 Z M 7.589844 0.816406 " clip-rule="nonzero"/></clipPath><clipPath id="2d65d0eb80"><rect x="0" width="82" y="0" height="83"/></clipPath><clipPath id="8cb35ec8bd"><path d="M 206.089844 279.1875 L 287.058594 279.1875 L 287.058594 361.101562 L 206.089844 361.101562 Z M 206.089844 279.1875 " clip-rule="nonzero"/></clipPath><clipPath id="21d9f86331"><path d="M 213.589844 279.1875 L 279.558594 279.1875 C 281.546875 279.1875 283.453125 279.976562 284.859375 281.382812 C 286.269531 282.789062 287.058594 284.695312 287.058594 286.6875 L 287.058594 353.542969 C 287.058594 355.535156 286.269531 357.441406 284.859375 358.847656 C 283.453125 360.253906 281.546875 361.042969 279.558594 361.042969 L 213.589844 361.042969 C 211.601562 361.042969 209.695312 360.253906 208.289062 358.847656 C 206.878906 357.441406 206.089844 355.535156 206.089844 353.542969 L 206.089844 286.6875 C 206.089844 284.695312 206.878906 282.789062 208.289062 281.382812 C 209.695312 279.976562 211.601562 279.1875 213.589844 279.1875 Z M 213.589844 279.1875 " clip-rule="nonzero"/></clipPath><clipPath id="939281c4ea"><path d="M 0.0898438 0.1875 L 81.058594 0.1875 L 81.058594 82.101562 L 0.0898438 82.101562 Z M 0.0898438 0.1875 " clip-rule="nonzero"/></clipPath><clipPath id="531eddd4ce"><path d="M 7.589844 0.1875 L 73.558594 0.1875 C 75.546875 0.1875 77.453125 0.976562 78.859375 2.382812 C 80.269531 3.789062 81.058594 5.695312 81.058594 7.6875 L 81.058594 74.542969 C 81.058594 76.535156 80.269531 78.441406 78.859375 79.847656 C 77.453125 81.253906 75.546875 82.042969 73.558594 82.042969 L 7.589844 82.042969 C 5.601562 82.042969 3.695312 81.253906 2.289062 79.847656 C 0.878906 78.441406 0.0898438 76.535156 0.0898438 74.542969 L 0.0898438 7.6875 C 0.0898438 5.695312 0.878906 3.789062 2.289062 2.382812 C 3.695312 0.976562 5.601562 0.1875 7.589844 0.1875 Z M 7.589844 0.1875 " clip-rule="nonzero"/></clipPath><clipPath id="bc63597611"><rect x="0" width="82" y="0" height="83"/></clipPath><clipPath id="949a45f9b1"><path d="M 108.558594 186.816406 L 189.527344 186.816406 L 189.527344 268.417969 L 108.558594 268.417969 Z M 108.558594 186.816406 " clip-rule="nonzero"/></clipPath><clipPath id="8b13a92f6b"><path d="M 116.058594 186.816406 L 182.027344 186.816406 C 184.015625 186.816406 185.925781 187.605469 187.332031 189.015625 C 188.738281 190.421875 189.527344 192.328125 189.527344 194.316406 L 189.527344 260.914062 C 189.527344 262.902344 188.738281 264.8125 187.332031 266.21875 C 185.925781 267.625 184.015625 268.414062 182.027344 268.414062 L 116.058594 268.414062 C 114.070312 268.414062 112.164062 267.625 110.757812 266.21875 C 109.351562 264.8125 108.558594 262.902344 108.558594 260.914062 L 108.558594 194.316406 C 108.558594 192.328125 109.351562 190.421875 110.757812 189.015625 C 112.164062 187.605469 114.070312 186.816406 116.058594 186.816406 Z M 116.058594 186.816406 " clip-rule="nonzero"/></clipPath><clipPath id="8b343e7f34"><path d="M 0.558594 0.816406 L 81.527344 0.816406 L 81.527344 82.417969 L 0.558594 82.417969 Z M 0.558594 0.816406 " clip-rule="nonzero"/></clipPath><clipPath id="08fd632399"><path d="M 8.058594 0.816406 L 74.027344 0.816406 C 76.015625 0.816406 77.925781 1.605469 79.332031 3.015625 C 80.738281 4.421875 81.527344 6.328125 81.527344 8.316406 L 81.527344 74.914062 C 81.527344 76.902344 80.738281 78.8125 79.332031 80.21875 C 77.925781 81.625 76.015625 82.414062 74.027344 82.414062 L 8.058594 82.414062 C 6.070312 82.414062 4.164062 81.625 2.757812 80.21875 C 1.351562 78.8125 0.558594 76.902344 0.558594 74.914062 L 0.558594 8.316406 C 0.558594 6.328125 1.351562 4.421875 2.757812 3.015625 C 4.164062 1.605469 6.070312 0.816406 8.058594 0.816406 Z M 8.058594 0.816406 " clip-rule="nonzero"/></clipPath><clipPath id="ecf88993b8"><rect x="0" width="82" y="0" height="83"/></clipPath><clipPath id="7ac933b51c"><path d="M 108.558594 278.867188 L 189.527344 278.867188 L 189.527344 361.101562 L 108.558594 361.101562 Z M 108.558594 278.867188 " clip-rule="nonzero"/></clipPath><clipPath id="83e329aea0"><path d="M 116.058594 278.867188 L 182.027344 278.867188 C 184.015625 278.867188 185.925781 279.65625 187.332031 281.0625 C 188.738281 282.46875 189.527344 284.378906 189.527344 286.367188 L 189.527344 353.542969 C 189.527344 355.535156 188.738281 357.441406 187.332031 358.847656 C 185.925781 360.253906 184.015625 361.042969 182.027344 361.042969 L 116.058594 361.042969 C 114.070312 361.042969 112.164062 360.253906 110.757812 358.847656 C 109.351562 357.441406 108.558594 355.535156 108.558594 353.542969 L 108.558594 286.367188 C 108.558594 284.378906 109.351562 282.46875 110.757812 281.0625 C 112.164062 279.65625 114.070312 278.867188 116.058594 278.867188 Z M 116.058594 278.867188 " clip-rule="nonzero"/></clipPath><clipPath id="f12579179a"><path d="M 0.558594 0.867188 L 81.527344 0.867188 L 81.527344 83.101562 L 0.558594 83.101562 Z M 0.558594 0.867188 " clip-rule="nonzero"/></clipPath><clipPath id="1fe9689022"><path d="M 8.058594 0.867188 L 74.027344 0.867188 C 76.015625 0.867188 77.925781 1.65625 79.332031 3.0625 C 80.738281 4.46875 81.527344 6.378906 81.527344 8.367188 L 81.527344 75.542969 C 81.527344 77.535156 80.738281 79.441406 79.332031 80.847656 C 77.925781 82.253906 76.015625 83.042969 74.027344 83.042969 L 8.058594 83.042969 C 6.070312 83.042969 4.164062 82.253906 2.757812 80.847656 C 1.351562 79.441406 0.558594 77.535156 0.558594 75.542969 L 0.558594 8.367188 C 0.558594 6.378906 1.351562 4.46875 2.757812 3.0625 C 4.164062 1.65625 6.070312 0.867188 8.058594 0.867188 Z M 8.058594 0.867188 " clip-rule="nonzero"/></clipPath><clipPath id="307d7d432a"><rect x="0" width="82" y="0" height="84"/></clipPath><clipPath id="0d68d36a26"><path d="M 11.453125 278.550781 L 93.171875 278.550781 L 93.171875 361.226562 L 11.453125 361.226562 Z M 11.453125 278.550781 " clip-rule="nonzero"/></clipPath><clipPath id="da4f5931b8"><path d="M 19.269531 278.867188 L 85.671875 278.867188 C 87.664062 278.867188 89.570312 279.65625 90.976562 281.0625 C 92.382812 282.46875 93.171875 284.378906 93.171875 286.367188 L 93.171875 353.542969 C 93.171875 355.535156 92.382812 357.441406 90.976562 358.847656 C 89.570312 360.253906 87.664062 361.042969 85.671875 361.042969 L 19.269531 361.042969 C 17.28125 361.042969 15.371094 360.253906 13.964844 358.847656 C 12.558594 357.441406 11.769531 355.535156 11.769531 353.542969 L 11.769531 286.367188 C 11.769531 284.378906 12.558594 282.46875 13.964844 281.0625 C 15.371094 279.65625 17.28125 278.867188 19.269531 278.867188 Z M 19.269531 278.867188 " clip-rule="nonzero"/></clipPath><clipPath id="7ffe9d5564"><path d="M 0.761719 0.679688 L 82.171875 0.679688 L 82.171875 83 L 0.761719 83 Z M 0.761719 0.679688 " clip-rule="nonzero"/></clipPath><clipPath id="369a0c53c7"><path d="M 8.269531 0.867188 L 74.671875 0.867188 C 76.664062 0.867188 78.570312 1.65625 79.976562 3.0625 C 81.382812 4.46875 82.171875 6.378906 82.171875 8.367188 L 82.171875 75.542969 C 82.171875 77.535156 81.382812 79.441406 79.976562 80.847656 C 78.570312 82.253906 76.664062 83.042969 74.671875 83.042969 L 8.269531 83.042969 C 6.28125 83.042969 4.371094 82.253906 2.964844 80.847656 C 1.558594 79.441406 0.769531 77.535156 0.769531 75.542969 L 0.769531 8.367188 C 0.769531 6.378906 1.558594 4.46875 2.964844 3.0625 C 4.371094 1.65625 6.28125 0.867188 8.269531 0.867188 Z M 8.269531 0.867188 " clip-rule="nonzero"/></clipPath><clipPath id="663c572acb"><rect x="0" width="83" y="0" height="84"/></clipPath><clipPath id="e7b93e0013"><path d="M 303.03125 94.410156 L 384 94.410156 L 384 175.695312 L 303.03125 175.695312 Z M 303.03125 94.410156 " clip-rule="nonzero"/></clipPath><clipPath id="7140aeedee"><path d="M 310.53125 94.410156 L 376.5 94.410156 C 378.488281 94.410156 380.398438 95.199219 381.804688 96.605469 C 383.210938 98.015625 384 99.921875 384 101.910156 L 384 168.09375 C 384 170.085938 383.210938 171.992188 381.804688 173.398438 C 380.398438 174.804688 378.488281 175.59375 376.5 175.59375 L 310.53125 175.59375 C 308.542969 175.59375 306.636719 174.804688 305.230469 173.398438 C 303.824219 171.992188 303.03125 170.085938 303.03125 168.09375 L 303.03125 101.910156 C 303.03125 99.921875 303.824219 98.015625 305.230469 96.605469 C 306.636719 95.199219 308.542969 94.410156 310.53125 94.410156 Z M 310.53125 94.410156 " clip-rule="nonzero"/></clipPath><clipPath id="d595dfc462"><path d="M 0.03125 0.410156 L 81 0.410156 L 81 81.695312 L 0.03125 81.695312 Z M 0.03125 0.410156 " clip-rule="nonzero"/></clipPath><clipPath id="c670d03e0d"><path d="M 7.53125 0.410156 L 73.5 0.410156 C 75.488281 0.410156 77.398438 1.199219 78.804688 2.605469 C 80.210938 4.015625 81 5.921875 81 7.910156 L 81 74.09375 C 81 76.085938 80.210938 77.992188 78.804688 79.398438 C 77.398438 80.804688 75.488281 81.59375 73.5 81.59375 L 7.53125 81.59375 C 5.542969 81.59375 3.636719 80.804688 2.230469 79.398438 C 0.824219 77.992188 0.03125 76.085938 0.03125 74.09375 L 0.03125 7.910156 C 0.03125 5.921875 0.824219 4.015625 2.230469 2.605469 C 3.636719 1.199219 5.542969 0.410156 7.53125 0.410156 Z M 7.53125 0.410156 " clip-rule="nonzero"/></clipPath><clipPath id="c67a9e8fae"><rect x="0" width="81" y="0" height="82"/></clipPath><clipPath id="c5c2596d02"><path d="M 303.03125 0.765625 L 384 0.765625 L 384 83 L 303.03125 83 Z M 303.03125 0.765625 " clip-rule="nonzero"/></clipPath><clipPath id="1d813bbf53"><path d="M 310.53125 0.765625 L 376.5 0.765625 C 378.488281 0.765625 380.398438 1.554688 381.804688 2.960938 C 383.210938 4.367188 384 6.277344 384 8.265625 L 384 75.277344 C 384 77.265625 383.210938 79.171875 381.804688 80.578125 C 380.398438 81.984375 378.488281 82.777344 376.5 82.777344 L 310.53125 82.777344 C 308.542969 82.777344 306.636719 81.984375 305.230469 80.578125 C 303.824219 79.171875 303.03125 77.265625 303.03125 75.277344 L 303.03125 8.265625 C 303.03125 6.277344 303.824219 4.367188 305.230469 2.960938 C 306.636719 1.554688 308.542969 0.765625 310.53125 0.765625 Z M 310.53125 0.765625 " clip-rule="nonzero"/></clipPath><clipPath id="cca26891fe"><path d="M 0.03125 0.765625 L 81 0.765625 L 81 82.839844 L 0.03125 82.839844 Z M 0.03125 0.765625 " clip-rule="nonzero"/></clipPath><clipPath id="457a20402b"><path d="M 7.53125 0.765625 L 73.5 0.765625 C 75.488281 0.765625 77.398438 1.554688 78.804688 2.960938 C 80.210938 4.367188 81 6.277344 81 8.265625 L 81 75.277344 C 81 77.265625 80.210938 79.171875 78.804688 80.578125 C 77.398438 81.984375 75.488281 82.777344 73.5 82.777344 L 7.53125 82.777344 C 5.542969 82.777344 3.636719 81.984375 2.230469 80.578125 C 0.824219 79.171875 0.03125 77.265625 0.03125 75.277344 L 0.03125 8.265625 C 0.03125 6.277344 0.824219 4.367188 2.230469 2.960938 C 3.636719 1.554688 5.542969 0.765625 7.53125 0.765625 Z M 7.53125 0.765625 " clip-rule="nonzero"/></clipPath><clipPath id="c259f47b0b"><rect x="0" width="81" y="0" height="83"/></clipPath><clipPath id="bd267200cd"><path d="M 206.089844 94.410156 L 287.058594 94.410156 L 287.058594 175.695312 L 206.089844 175.695312 Z M 206.089844 94.410156 " clip-rule="nonzero"/></clipPath><clipPath id="8a9bc4cbd3"><path d="M 213.589844 94.410156 L 279.558594 94.410156 C 281.546875 94.410156 283.453125 95.199219 284.859375 96.605469 C 286.269531 98.015625 287.058594 99.921875 287.058594 101.910156 L 287.058594 168.09375 C 287.058594 170.085938 286.269531 171.992188 284.859375 173.398438 C 283.453125 174.804688 281.546875 175.59375 279.558594 175.59375 L 213.589844 175.59375 C 211.601562 175.59375 209.695312 174.804688 208.289062 173.398438 C 206.878906 171.992188 206.089844 170.085938 206.089844 168.09375 L 206.089844 101.910156 C 206.089844 99.921875 206.878906 98.015625 208.289062 96.605469 C 209.695312 95.199219 211.601562 94.410156 213.589844 94.410156 Z M 213.589844 94.410156 " clip-rule="nonzero"/></clipPath><clipPath id="4810736c27"><path d="M 0.0898438 0.410156 L 81.058594 0.410156 L 81.058594 81.695312 L 0.0898438 81.695312 Z M 0.0898438 0.410156 " clip-rule="nonzero"/></clipPath><clipPath id="bdf97ee773"><path d="M 7.589844 0.410156 L 73.558594 0.410156 C 75.546875 0.410156 77.453125 1.199219 78.859375 2.605469 C 80.269531 4.015625 81.058594 5.921875 81.058594 7.910156 L 81.058594 74.09375 C 81.058594 76.085938 80.269531 77.992188 78.859375 79.398438 C 77.453125 80.804688 75.546875 81.59375 73.558594 81.59375 L 7.589844 81.59375 C 5.601562 81.59375 3.695312 80.804688 2.289062 79.398438 C 0.878906 77.992188 0.0898438 76.085938 0.0898438 74.09375 L 0.0898438 7.910156 C 0.0898438 5.921875 0.878906 4.015625 2.289062 2.605469 C 3.695312 1.199219 5.601562 0.410156 7.589844 0.410156 Z M 7.589844 0.410156 " clip-rule="nonzero"/></clipPath><clipPath id="5e14251406"><rect x="0" width="82" y="0" height="82"/></clipPath><clipPath id="60fe8bcf14"><path d="M 0 101.035156 L 104.714844 101.035156 L 104.714844 249.917969 L 0 249.917969 Z M 0 101.035156 " clip-rule="nonzero"/></clipPath><clipPath id="5c97f3d4de"><rect x="0" width="384" y="0" height="362"/></clipPath></defs><g transform="matrix(1, 0, 0, 1, 0, 11)"><g clip-path="url(#5c97f3d4de)"><g clip-path="url(#479f2f9408)"><g clip-path="url(#ee9399db77)"><g transform="matrix(1, 0, 0, 1, 303, 278)"><g clip-path="url(#6798ee7ae4)"><g clip-path="url(#3f20776275)"><g clip-path="url(#584de6e4a9)"><path fill="#0c2948" d="M 0.03125 0.867188 L 81 0.867188 L 81 83.101562 L 0.03125 83.101562 Z M 0.03125 0.867188 " fill-opacity="1" fill-rule="nonzero"/></g></g></g></g></g></g><g clip-path="url(#acbb90c143)"><g clip-path="url(#69d1478930)"><g transform="matrix(1, 0, 0, 1, 303, 186)"><g clip-path="url(#9250500144)"><g clip-path="url(#881a4d8f93)"><g clip-path="url(#a9f491988b)"><path fill="#0c2948" d="M 0.03125 0.816406 L 81 0.816406 L 81 82.417969 L 0.03125 82.417969 Z M 0.03125 0.816406 " fill-opacity="1" fill-rule="nonzero"/></g></g></g></g></g></g><g clip-path="url(#eee16a4ccf)"><g clip-path="url(#ea63362927)"><g transform="matrix(1, 0, 0, 1, 206, 186)"><g clip-path="url(#2d65d0eb80)"><g clip-path="url(#8c4374fbb7)"><g clip-path="url(#a143bf9d47)"><path fill="#325675" d="M 0.0898438 0.816406 L 81.058594 0.816406 L 81.058594 82.417969 L 0.0898438 82.417969 Z M 0.0898438 0.816406 " fill-opacity="1" fill-rule="nonzero"/></g></g></g></g></g></g><g clip-path="url(#8cb35ec8bd)"><g clip-path="url(#21d9f86331)"><g transform="matrix(1, 0, 0, 1, 206, 279)"><g clip-path="url(#bc63597611)"><g clip-path="url(#939281c4ea)"><g clip-path="url(#531eddd4ce)"><path fill="#325675" d="M 0.0898438 0.1875 L 81.058594 0.1875 L 81.058594 82.101562 L 0.0898438 82.101562 Z M 0.0898438 0.1875 " fill-opacity="1" fill-rule="nonzero"/></g></g></g></g></g></g><g clip-path="url(#949a45f9b1)"><g clip-path="url(#8b13a92f6b)"><g transform="matrix(1, 0, 0, 1, 108, 186)"><g clip-path="url(#ecf88993b8)"><g clip-path="url(#8b343e7f34)"><g clip-path="url(#08fd632399)"><path fill="#7793ab" d="M 0.558594 0.816406 L 81.527344 0.816406 L 81.527344 82.417969 L 0.558594 82.417969 Z M 0.558594 0.816406 " fill-opacity="1" fill-rule="nonzero"/></g></g></g></g></g></g><g clip-path="url(#7ac933b51c)"><g clip-path="url(#83e329aea0)"><g transform="matrix(1, 0, 0, 1, 108, 278)"><g clip-path="url(#307d7d432a)"><g clip-path="url(#f12579179a)"><g clip-path="url(#1fe9689022)"><path fill="#7793ab" d="M 0.558594 0.867188 L 81.527344 0.867188 L 81.527344 83.101562 L 0.558594 83.101562 Z M 0.558594 0.867188 " fill-opacity="1" fill-rule="nonzero"/></g></g></g></g></g></g><g clip-path="url(#0d68d36a26)"><g clip-path="url(#da4f5931b8)"><g transform="matrix(1, 0, 0, 1, 11, 278)"><g clip-path="url(#663c572acb)"><g clip-path="url(#7ffe9d5564)"><g clip-path="url(#369a0c53c7)"><path fill="#cda04f" d="M 0.769531 0.867188 L 82.171875 0.867188 L 82.171875 82.90625 L 0.769531 82.90625 Z M 0.769531 0.867188 " fill-opacity="1" fill-rule="nonzero"/></g></g></g></g></g></g><g clip-path="url(#e7b93e0013)"><g clip-path="url(#7140aeedee)"><g transform="matrix(1, 0, 0, 1, 303, 94)"><g clip-path="url(#c67a9e8fae)"><g clip-path="url(#d595dfc462)"><g clip-path="url(#c670d03e0d)"><path fill="#0c2948" d="M 0.03125 0.410156 L 81 0.410156 L 81 81.695312 L 0.03125 81.695312 Z M 0.03125 0.410156 " fill-opacity="1" fill-rule="nonzero"/></g></g></g></g></g></g><g clip-path="url(#c5c2596d02)"><g clip-path="url(#1d813bbf53)"><g transform="matrix(1, 0, 0, 1, 303, 0)"><g clip-path="url(#c259f47b0b)"><g clip-path="url(#cca26891fe)"><g clip-path="url(#457a20402b)"><path fill="#0c2948" d="M 0.03125 0.765625 L 81 0.765625 L 81 82.683594 L 0.03125 82.683594 Z M 0.03125 0.765625 " fill-opacity="1" fill-rule="nonzero"/></g></g></g></g></g></g><g clip-path="url(#bd267200cd)"><g clip-path="url(#8a9bc4cbd3)"><g transform="matrix(1, 0, 0, 1, 206, 94)"><g clip-path="url(#5e14251406)"><g clip-path="url(#4810736c27)"><g clip-path="url(#bdf97ee773)"><path fill="#325675" d="M 0.0898438 0.410156 L 81.058594 0.410156 L 81.058594 81.695312 L 0.0898438 81.695312 Z M 0.0898438 0.410156 " fill-opacity="1" fill-rule="nonzero"/></g></g></g></g></g></g><g clip-path="url(#60fe8bcf14)"><path fill="#cda04f" d="M 52.460938 101.113281 C 23.542969 101.113281 0 124.660156 0 153.574219 C 0 160.183594 2.757812 169.367188 8.203125 180.875 C 12.5625 190.078125 18.625 200.789062 26.25 212.695312 C 38.972656 232.609375 51.878906 249.3125 52.460938 250.074219 C 53.042969 249.328125 65.949219 232.609375 78.691406 212.714844 C 86.316406 200.808594 92.378906 190.097656 96.734375 180.894531 C 102.179688 169.386719 104.9375 160.199219 104.9375 153.59375 C 104.921875 124.660156 81.394531 101.113281 52.460938 101.113281 Z M 79.542969 160.78125 C 78.054688 164.285156 75.949219 167.425781 73.246094 170.128906 C 70.539062 172.835938 67.398438 174.941406 63.894531 176.429688 C 60.265625 177.953125 56.417969 178.734375 52.460938 178.734375 C 48.484375 178.734375 44.636719 177.953125 41.023438 176.429688 C 37.519531 174.941406 34.378906 172.835938 31.675781 170.128906 C 28.972656 167.425781 26.867188 164.285156 25.378906 160.78125 C 23.851562 157.152344 23.070312 153.300781 23.070312 149.34375 C 23.070312 145.371094 23.851562 141.523438 25.378906 137.910156 C 26.867188 134.40625 28.972656 131.265625 31.675781 128.5625 C 34.378906 125.855469 37.519531 123.75 41.023438 122.261719 C 44.65625 120.738281 48.503906 119.957031 52.460938 119.957031 C 56.4375 119.957031 60.265625 120.738281 63.894531 122.261719 C 67.398438 123.75 70.539062 125.855469 73.246094 128.5625 C 75.949219 131.265625 78.054688 134.40625 79.542969 137.910156 C 81.070312 141.539062 81.847656 145.386719 81.847656 149.34375 C 81.847656 153.320312 81.070312 157.167969 79.542969 160.78125 Z M 79.542969 160.78125 " fill-opacity="1" fill-rule="nonzero"/></g></g></g></svg>